<svg id="Layer_1" data-name="Layer 1" xmlns="http://www.w3.org/2000/svg" width="310" height="540" viewBox="0 0 310 540"><defs><style>.cls-1{fill:#e8a784;}.cls-2{fill:#ee7f6a;}.cls-3{fill:#354f9d;}.cls-4{fill:#010202;}.cls-5{fill:#e08d75;}.cls-6{fill:#77311c;}.cls-7{fill:#050606;}.cls-8{fill:#ea6c6d;}.cls-9{fill:#f20f0f;}.cls-10{fill:#fff;}.cls-11{fill:#22386d;}.cls-12{fill:#ffd604;}.cls-13{fill:#fab818;}.cls-14{fill:#393a3a;}</style></defs><path class="cls-1" d="M2.49,112.66l10.23-7.49a3.29,3.29,0,0,1,4.63.72L33.46,128a3.34,3.34,0,0,1-.72,4.65L22.5,140.15a3.29,3.29,0,0,1-4.63-.72L1.76,117.31A3.34,3.34,0,0,1,2.49,112.66Z"/><path class="cls-2" d="M29.58,122l3.65-.75a1,1,0,0,1,1.15.76l2.82,13.94a1,1,0,0,1-.76,1.15l-3.65.75a1,1,0,0,1-1.15-.76l-2.82-13.94A1,1,0,0,1,29.58,122Z"/><path class="cls-3" d="M211.71,355.67V250.42a54.34,54.34,0,0,0-54.42-54.25h0a54.34,54.34,0,0,0-54.43,54.25V355.67a54.27,54.27,0,0,0,1.23,11.48H210.48A54.27,54.27,0,0,0,211.71,355.67Z"/><path class="cls-4" d="M157.29,409.92h0a54.4,54.4,0,0,0,53.19-42.77H104.09A54.4,54.4,0,0,0,157.29,409.92Z"/><rect class="cls-5" x="129.87" y="161.19" width="54.83" height="70.91" rx="27.42"/><ellipse class="cls-1" cx="233.54" cy="121.48" rx="15.89" ry="15.84"/><ellipse class="cls-2" cx="233.54" cy="121.48" rx="9.03" ry="9"/><ellipse class="cls-1" cx="81.03" cy="123.43" rx="15.89" ry="15.84"/><ellipse class="cls-2" cx="81.03" cy="123.43" rx="9.03" ry="9"/><ellipse class="cls-6" cx="157.29" cy="87.75" rx="80.68" ry="80.42"/><rect class="cls-1" x="81.03" y="39.79" width="152.5" height="163.39" rx="76.25"/><ellipse class="cls-6" cx="160.23" cy="32.84" rx="25.59" ry="25.51"/><ellipse class="cls-6" cx="197.65" cy="36.96" rx="25.07" ry="24.99"/><ellipse class="cls-6" cx="174.75" cy="17.17" rx="14.52" ry="14.47"/><ellipse class="cls-6" cx="127.38" cy="42.68" rx="9.87" ry="9.84"/><ellipse class="cls-6" cx="107.41" cy="50.58" rx="14.52" ry="14.47"/><ellipse class="cls-6" cx="115.52" cy="31.64" rx="14.52" ry="14.47"/><ellipse class="cls-7" cx="118.47" cy="96.15" rx="8.42" ry="8.4"/><ellipse class="cls-7" cx="194.94" cy="96.15" rx="8.42" ry="8.4"/><rect class="cls-2" x="150" y="96.15" width="14.58" height="38.86" rx="3.88"/><path class="cls-7" d="M153.4,162.06c8.16,0,15.32,3.3,19.43,8.27a23.06,23.06,0,0,0,3.93-12.91c0-.63,0-1.25-.1-1.87l-44.4-8A23.1,23.1,0,0,0,134,170.33C138.08,165.36,145.24,162.06,153.4,162.06Z"/><path class="cls-8" d="M153.4,180.7a23.31,23.31,0,0,0,19.43-10.37c-4.11-5-11.27-8.27-19.43-8.27s-15.32,3.3-19.43,8.27A23.34,23.34,0,0,0,153.4,180.7Z"/><rect class="cls-1" x="119.39" y="385.85" width="13.81" height="151.45"/><rect x="115.37" y="385.85" width="21.85" height="75.72"/><path class="cls-3" d="M109.13,516.7a24.33,24.33,0,0,0-24.06,20.6H133.2A24.34,24.34,0,0,0,109.13,516.7Z"/><rect class="cls-1" x="181.31" y="385.85" width="13.81" height="151.45" transform="translate(376.43 923.15) rotate(-180)"/><rect x="177.29" y="385.85" width="21.85" height="75.72" transform="translate(376.43 847.43) rotate(-180)"/><path class="cls-3" d="M205.37,516.7a24.34,24.34,0,0,1,24.07,20.6H181.31A24.33,24.33,0,0,1,205.37,516.7Z"/><path class="cls-1" d="M13.54,124l6.58-4.82a2.12,2.12,0,0,1,3,.46L111,240.37a2.15,2.15,0,0,1-.47,3L104,248.18a2.13,2.13,0,0,1-3-.46L13.07,127A2.15,2.15,0,0,1,13.54,124Z"/><path class="cls-3" d="M74.17,207.25l7.58-5.56a3.66,3.66,0,0,1,5.13.8L113.46,239a3.69,3.69,0,0,1-.8,5.15l-7.58,5.55a3.66,3.66,0,0,1-5.13-.8L73.36,212.39A3.69,3.69,0,0,1,74.17,207.25Z"/><path class="cls-1" d="M296.58,117.17l-6.64-4.73a2.14,2.14,0,0,0-3,.5L200.69,234.86a2.14,2.14,0,0,0,.51,3l6.64,4.73a2.14,2.14,0,0,0,3-.5l86.27-121.92A2.14,2.14,0,0,0,296.58,117.17Z"/><path class="cls-3" d="M237.08,201.24l-7.65-5.45a3.68,3.68,0,0,0-5.13.86l-26.08,36.87a3.69,3.69,0,0,0,.87,5.14l7.65,5.44a3.66,3.66,0,0,0,5.12-.86L238,206.37A3.68,3.68,0,0,0,237.08,201.24Z"/><path class="cls-1" d="M307.48,105.69l-10.34-7.35a3.3,3.3,0,0,0-4.62.78l-15.81,22.34a3.33,3.33,0,0,0,.79,4.64l10.33,7.35a3.31,3.31,0,0,0,4.63-.78l15.81-22.34A3.35,3.35,0,0,0,307.48,105.69Z"/><path class="cls-2" d="M280.51,115.35l-3.66-.7a1,1,0,0,0-1.14.78l-2.63,14a1,1,0,0,0,.78,1.14l3.66.7a1,1,0,0,0,1.14-.77l2.63-14A1,1,0,0,0,280.51,115.35Z"/><rect class="cls-9" x="135.2" y="203.4" width="2.54" height="48.63" transform="translate(-97.56 102.38) rotate(-30.89)"/><rect class="cls-10" x="137.38" y="202.1" width="2.54" height="48.63" transform="translate(-96.58 103.31) rotate(-30.89)"/><rect class="cls-11" x="139.55" y="200.8" width="2.54" height="48.63" transform="translate(-95.61 104.25) rotate(-30.89)"/><rect class="cls-9" x="172.49" y="200.67" width="2.54" height="48.63" transform="translate(148.93 -58.2) rotate(32.67)"/><rect class="cls-10" x="174.63" y="202.04" width="2.54" height="48.63" transform="translate(150.01 -59.14) rotate(32.67)"/><rect class="cls-11" x="176.76" y="203.41" width="2.54" height="48.63" transform="translate(151.08 -60.07) rotate(32.67)"/><circle class="cls-12" cx="157.23" cy="267.21" r="24.42"/><circle class="cls-13" cx="157.23" cy="267.21" r="18.4"/><circle class="cls-12" cx="157.23" cy="267.21" r="12.9"/><path class="cls-14" d="M158.65,272.12h-2.27v-7.25l-2.24.66V263.8l4.3-1.49h.21Z"/></svg>