<svg id="Layer_1" data-name="Layer 1" xmlns="http://www.w3.org/2000/svg" width="1920" height="1080" viewBox="0 0 1920 1080"><defs><style>.cls-1{fill:#f9f9f7;}.cls-2{fill:#ed7748;}.cls-3{fill:#41a8df;}.cls-4{fill:#f9f9f9;}.cls-5{fill:#dfdcd5;}.cls-6{fill:#a59a96;}.cls-7{fill:#8dbf3f;}.cls-8{fill:#80bf75;}.cls-9{fill:#55b04a;}.cls-10{fill:#398033;}.cls-11{fill:#e1e1e1;}.cls-12{fill:#828282;}.cls-13{fill:#3a3937;}.cls-14{fill:#b7b6b6;}.cls-15{fill:#00a33a;}.cls-16{fill:#e8a784;}.cls-17{fill:#ee7f6a;}.cls-18{fill:#354f9d;}.cls-19{fill:#010202;}.cls-20{fill:#e08d75;}.cls-21{fill:#77311c;}.cls-22{fill:#050606;}.cls-23{fill:#ea6c6d;}</style></defs><path class="cls-1" d="M1884.51,145.12A83.79,83.79,0,0,0,1733.79,95a83.62,83.62,0,1,0-85.48,131.47,48.67,48.67,0,0,0-3.84,18.76c0,38.41,46.24,69.55,103.27,69.55S1851,283.68,1851,245.27a50.77,50.77,0,0,0-8.59-27.77A83.34,83.34,0,0,0,1884.51,145.12Z"/><rect class="cls-2" x="-1.21" y="1030.75" width="1922.21" height="49.25"/><rect class="cls-2" x="-1.21" y="935.67" width="1922.21" height="84.1"/><rect class="cls-3" x="-1.21" y="-0.75" width="1922.21" height="514.91"/><rect class="cls-2" x="-1.21" y="745.52" width="1922.21" height="84.1"/><rect class="cls-2" x="-1.21" y="840.6" width="1922.21" height="84.1"/><rect class="cls-4" x="1669.09" y="745.29" width="36.7" height="339.71"/><path class="cls-1" d="M398.26,157.38c26.68-9.44,44.6-26.9,44.6-46.88,0-30-40.44-54.36-90.34-54.36a138.62,138.62,0,0,0-44.42,7A66.22,66.22,0,0,0,193,32.38C179,16.88,157.63,7,133.67,7,91.5,7,57.32,37.63,57.32,75.45A62.25,62.25,0,0,0,59.05,90a76.75,76.75,0,1,0,50.53,143.84,84.73,84.73,0,0,0,141.55,56.86c19.17,8.27,41.92,13.08,66.35,13.08,68.17,0,123.43-37.32,123.43-83.36C440.91,195.22,424.37,172.67,398.26,157.38Z"/><path class="cls-1" d="M1884.51,145.12A83.79,83.79,0,0,0,1733.79,95a83.62,83.62,0,1,0-85.48,131.47,48.67,48.67,0,0,0-3.84,18.76c0,38.41,46.24,69.55,103.27,69.55S1851,283.68,1851,245.27a50.77,50.77,0,0,0-8.59-27.77A83.34,83.34,0,0,0,1884.51,145.12Z"/><polygon class="cls-5" points="1920.99 530.3 -1.21 530.3 227.87 205.78 1669.09 204 1920.99 530.3"/><rect class="cls-6" x="-1.21" y="494.37" width="1922.21" height="231.14"/><rect class="cls-7" x="-1.21" y="700.45" width="1922.21" height="50.12"/><polygon class="cls-8" points="2.38 696.94 24.86 735.4 -20.1 735.4 2.38 696.94"/><polygon class="cls-8" points="47.34 696.94 69.83 735.4 24.86 735.4 47.34 696.94"/><polygon class="cls-8" points="92.31 696.94 114.79 735.4 69.83 735.4 92.31 696.94"/><polygon class="cls-8" points="137.27 696.94 159.75 735.4 114.79 735.4 137.27 696.94"/><polygon class="cls-8" points="182.23 696.94 204.71 735.4 159.75 735.4 182.23 696.94"/><polygon class="cls-8" points="227.19 696.94 249.67 735.4 204.71 735.4 227.19 696.94"/><polygon class="cls-8" points="272.15 696.94 294.63 735.4 249.67 735.4 272.15 696.94"/><polygon class="cls-8" points="317.11 696.94 339.6 735.4 294.63 735.4 317.11 696.94"/><polygon class="cls-8" points="362.08 696.94 384.56 735.4 339.6 735.4 362.08 696.94"/><polygon class="cls-8" points="407.04 696.94 429.52 735.4 384.56 735.4 407.04 696.94"/><polygon class="cls-8" points="452 696.94 474.48 735.4 429.52 735.4 452 696.94"/><polygon class="cls-8" points="496.96 696.94 519.44 735.4 474.48 735.4 496.96 696.94"/><polygon class="cls-8" points="541.92 696.94 564.4 735.4 519.44 735.4 541.92 696.94"/><polygon class="cls-8" points="586.88 696.94 609.36 735.4 564.4 735.4 586.88 696.94"/><polygon class="cls-8" points="631.85 696.94 654.33 735.4 609.36 735.4 631.85 696.94"/><polygon class="cls-8" points="676.81 696.94 699.29 735.4 654.33 735.4 676.81 696.94"/><polygon class="cls-8" points="721.77 696.94 744.25 735.4 699.29 735.4 721.77 696.94"/><polygon class="cls-8" points="766.73 696.94 789.21 735.4 744.25 735.4 766.73 696.94"/><polygon class="cls-8" points="811.69 696.94 834.17 735.4 789.21 735.4 811.69 696.94"/><polygon class="cls-8" points="856.65 696.94 879.13 735.4 834.17 735.4 856.65 696.94"/><polygon class="cls-8" points="901.61 696.94 924.1 735.4 879.13 735.4 901.61 696.94"/><polygon class="cls-8" points="946.58 696.94 969.06 735.4 924.1 735.4 946.58 696.94"/><polygon class="cls-8" points="991.54 696.94 1014.02 735.4 969.06 735.4 991.54 696.94"/><polygon class="cls-8" points="1036.5 696.94 1058.98 735.4 1014.02 735.4 1036.5 696.94"/><polygon class="cls-8" points="1081.46 696.94 1103.94 735.4 1058.98 735.4 1081.46 696.94"/><polygon class="cls-8" points="1126.42 696.94 1148.9 735.4 1103.94 735.4 1126.42 696.94"/><polygon class="cls-8" points="1171.38 696.94 1193.86 735.4 1148.9 735.4 1171.38 696.94"/><polygon class="cls-8" points="1216.35 696.94 1238.83 735.4 1193.86 735.4 1216.35 696.94"/><polygon class="cls-8" points="1261.31 696.94 1283.79 735.4 1238.83 735.4 1261.31 696.94"/><polygon class="cls-8" points="1306.27 696.94 1328.75 735.4 1283.79 735.4 1306.27 696.94"/><polygon class="cls-8" points="1351.23 696.94 1373.71 735.4 1328.75 735.4 1351.23 696.94"/><polygon class="cls-8" points="1396.19 696.94 1418.67 735.4 1373.71 735.4 1396.19 696.94"/><polygon class="cls-8" points="1441.15 696.94 1463.63 735.4 1418.67 735.4 1441.15 696.94"/><polygon class="cls-8" points="1486.11 696.94 1508.6 735.4 1463.63 735.4 1486.11 696.94"/><polygon class="cls-8" points="1531.08 696.94 1553.56 735.4 1508.6 735.4 1531.08 696.94"/><polygon class="cls-8" points="1576.04 696.94 1598.52 735.4 1553.56 735.4 1576.04 696.94"/><polygon class="cls-8" points="1621 696.94 1643.48 735.4 1598.52 735.4 1621 696.94"/><polygon class="cls-8" points="1665.96 696.94 1688.44 735.4 1643.48 735.4 1665.96 696.94"/><polygon class="cls-8" points="1710.92 696.94 1733.4 735.4 1688.44 735.4 1710.92 696.94"/><polygon class="cls-8" points="1755.88 696.94 1778.36 735.4 1733.4 735.4 1755.88 696.94"/><polygon class="cls-8" points="1800.84 696.94 1823.33 735.4 1778.36 735.4 1800.84 696.94"/><polygon class="cls-8" points="1845.81 696.94 1868.29 735.4 1823.33 735.4 1845.81 696.94"/><polygon class="cls-8" points="1890.77 696.94 1913.25 735.4 1868.29 735.4 1890.77 696.94"/><polygon class="cls-8" points="1935.73 696.94 1958.21 735.4 1913.25 735.4 1935.73 696.94"/><polygon class="cls-9" points="36.17 712.1 58.66 750.56 13.69 750.56 36.17 712.1"/><polygon class="cls-9" points="81.14 712.1 103.62 750.56 58.66 750.56 81.14 712.1"/><polygon class="cls-9" points="126.1 712.1 148.58 750.56 103.62 750.56 126.1 712.1"/><polygon class="cls-9" points="171.06 712.1 193.54 750.56 148.58 750.56 171.06 712.1"/><polygon class="cls-9" points="216.02 712.1 238.5 750.56 193.54 750.56 216.02 712.1"/><polygon class="cls-9" points="260.98 712.1 283.46 750.56 238.5 750.56 260.98 712.1"/><polygon class="cls-9" points="305.94 712.1 328.42 750.56 283.46 750.56 305.94 712.1"/><polygon class="cls-9" points="350.9 712.1 373.39 750.56 328.42 750.56 350.9 712.1"/><polygon class="cls-9" points="395.87 712.1 418.35 750.56 373.39 750.56 395.87 712.1"/><polygon class="cls-9" points="440.83 712.1 463.31 750.56 418.35 750.56 440.83 712.1"/><polygon class="cls-9" points="485.79 712.1 508.27 750.56 463.31 750.56 485.79 712.1"/><polygon class="cls-9" points="530.75 712.1 553.23 750.56 508.27 750.56 530.75 712.1"/><polygon class="cls-9" points="575.71 712.1 598.19 750.56 553.23 750.56 575.71 712.1"/><polygon class="cls-9" points="620.67 712.1 643.15 750.56 598.19 750.56 620.67 712.1"/><polygon class="cls-9" points="665.63 712.1 688.12 750.56 643.15 750.56 665.63 712.1"/><polygon class="cls-9" points="710.6 712.1 733.08 750.56 688.12 750.56 710.6 712.1"/><polygon class="cls-9" points="755.56 712.1 778.04 750.56 733.08 750.56 755.56 712.1"/><polygon class="cls-9" points="800.52 712.1 823 750.56 778.04 750.56 800.52 712.1"/><polygon class="cls-9" points="845.48 712.1 867.96 750.56 823 750.56 845.48 712.1"/><polygon class="cls-9" points="890.44 712.1 912.92 750.56 867.96 750.56 890.44 712.1"/><polygon class="cls-9" points="935.4 712.1 957.88 750.56 912.92 750.56 935.4 712.1"/><polygon class="cls-9" points="980.37 712.1 1002.85 750.56 957.88 750.56 980.37 712.1"/><polygon class="cls-9" points="1025.33 712.1 1047.81 750.56 1002.85 750.56 1025.33 712.1"/><polygon class="cls-9" points="1070.29 712.1 1092.77 750.56 1047.81 750.56 1070.29 712.1"/><polygon class="cls-9" points="1115.25 712.1 1137.73 750.56 1092.77 750.56 1115.25 712.1"/><polygon class="cls-9" points="1160.21 712.1 1182.69 750.56 1137.73 750.56 1160.21 712.1"/><polygon class="cls-9" points="1205.17 712.1 1227.65 750.56 1182.69 750.56 1205.17 712.1"/><polygon class="cls-9" points="1250.13 712.1 1272.62 750.56 1227.65 750.56 1250.13 712.1"/><polygon class="cls-9" points="1295.1 712.1 1317.58 750.56 1272.62 750.56 1295.1 712.1"/><polygon class="cls-9" points="1340.06 712.1 1362.54 750.56 1317.58 750.56 1340.06 712.1"/><polygon class="cls-9" points="1385.02 712.1 1407.5 750.56 1362.54 750.56 1385.02 712.1"/><polygon class="cls-9" points="1429.98 712.1 1452.46 750.56 1407.5 750.56 1429.98 712.1"/><polygon class="cls-9" points="1474.94 712.1 1497.42 750.56 1452.46 750.56 1474.94 712.1"/><polygon class="cls-9" points="1519.9 712.1 1542.38 750.56 1497.42 750.56 1519.9 712.1"/><polygon class="cls-9" points="1564.87 712.1 1587.35 750.56 1542.38 750.56 1564.87 712.1"/><polygon class="cls-9" points="1609.83 712.1 1632.31 750.56 1587.35 750.56 1609.83 712.1"/><polygon class="cls-9" points="1654.79 712.1 1677.27 750.56 1632.31 750.56 1654.79 712.1"/><polygon class="cls-9" points="1699.75 712.1 1722.23 750.56 1677.27 750.56 1699.75 712.1"/><polygon class="cls-9" points="1744.71 712.1 1767.19 750.56 1722.23 750.56 1744.71 712.1"/><polygon class="cls-9" points="1789.67 712.1 1812.15 750.56 1767.19 750.56 1789.67 712.1"/><polygon class="cls-9" points="1834.63 712.1 1857.12 750.56 1812.15 750.56 1834.63 712.1"/><polygon class="cls-9" points="1879.6 712.1 1902.08 750.56 1857.12 750.56 1879.6 712.1"/><polygon class="cls-9" points="1924.56 712.1 1947.04 750.56 1902.08 750.56 1924.56 712.1"/><polygon class="cls-10" points="5.67 712.1 28.15 750.56 -16.81 750.56 5.67 712.1"/><polygon class="cls-10" points="50.63 712.1 73.11 750.56 28.15 750.56 50.63 712.1"/><polygon class="cls-10" points="95.59 712.1 118.08 750.56 73.11 750.56 95.59 712.1"/><polygon class="cls-10" points="140.56 712.1 163.04 750.56 118.08 750.56 140.56 712.1"/><polygon class="cls-10" points="185.52 712.1 208 750.56 163.04 750.56 185.52 712.1"/><polygon class="cls-10" points="230.48 712.1 252.96 750.56 208 750.56 230.48 712.1"/><polygon class="cls-10" points="275.44 712.1 297.92 750.56 252.96 750.56 275.44 712.1"/><polygon class="cls-10" points="320.4 712.1 342.88 750.56 297.92 750.56 320.4 712.1"/><polygon class="cls-10" points="365.36 712.1 387.85 750.56 342.88 750.56 365.36 712.1"/><polygon class="cls-10" points="410.33 712.1 432.81 750.56 387.85 750.56 410.33 712.1"/><polygon class="cls-10" points="455.29 712.1 477.77 750.56 432.81 750.56 455.29 712.1"/><polygon class="cls-10" points="500.25 712.1 522.73 750.56 477.77 750.56 500.25 712.1"/><polygon class="cls-10" points="545.21 712.1 567.69 750.56 522.73 750.56 545.21 712.1"/><polygon class="cls-10" points="590.17 712.1 612.65 750.56 567.69 750.56 590.17 712.1"/><polygon class="cls-10" points="635.13 712.1 657.61 750.56 612.65 750.56 635.13 712.1"/><polygon class="cls-10" points="680.1 712.1 702.58 750.56 657.61 750.56 680.1 712.1"/><polygon class="cls-10" points="725.06 712.1 747.54 750.56 702.58 750.56 725.06 712.1"/><polygon class="cls-10" points="770.02 712.1 792.5 750.56 747.54 750.56 770.02 712.1"/><polygon class="cls-10" points="814.98 712.1 837.46 750.56 792.5 750.56 814.98 712.1"/><polygon class="cls-10" points="859.94 712.1 882.42 750.56 837.46 750.56 859.94 712.1"/><polygon class="cls-10" points="904.9 712.1 927.38 750.56 882.42 750.56 904.9 712.1"/><polygon class="cls-10" points="949.86 712.1 972.35 750.56 927.38 750.56 949.86 712.1"/><polygon class="cls-10" points="994.83 712.1 1017.31 750.56 972.35 750.56 994.83 712.1"/><polygon class="cls-10" points="1039.79 712.1 1062.27 750.56 1017.31 750.56 1039.79 712.1"/><polygon class="cls-10" points="1084.75 712.1 1107.23 750.56 1062.27 750.56 1084.75 712.1"/><polygon class="cls-10" points="1129.71 712.1 1152.19 750.56 1107.23 750.56 1129.71 712.1"/><polygon class="cls-10" points="1174.67 712.1 1197.15 750.56 1152.19 750.56 1174.67 712.1"/><polygon class="cls-10" points="1219.63 712.1 1242.11 750.56 1197.15 750.56 1219.63 712.1"/><polygon class="cls-10" points="1264.59 712.1 1287.08 750.56 1242.11 750.56 1264.59 712.1"/><polygon class="cls-10" points="1309.56 712.1 1332.04 750.56 1287.08 750.56 1309.56 712.1"/><polygon class="cls-10" points="1354.52 712.1 1377 750.56 1332.04 750.56 1354.52 712.1"/><polygon class="cls-10" points="1399.48 712.1 1421.96 750.56 1377 750.56 1399.48 712.1"/><polygon class="cls-10" points="1444.44 712.1 1466.92 750.56 1421.96 750.56 1444.44 712.1"/><polygon class="cls-10" points="1489.4 712.1 1511.88 750.56 1466.92 750.56 1489.4 712.1"/><polygon class="cls-10" points="1534.36 712.1 1556.84 750.56 1511.88 750.56 1534.36 712.1"/><polygon class="cls-10" points="1579.33 712.1 1601.81 750.56 1556.84 750.56 1579.33 712.1"/><polygon class="cls-10" points="1624.29 712.1 1646.77 750.56 1601.81 750.56 1624.29 712.1"/><polygon class="cls-10" points="1669.25 712.1 1691.73 750.56 1646.77 750.56 1669.25 712.1"/><polygon class="cls-10" points="1714.21 712.1 1736.69 750.56 1691.73 750.56 1714.21 712.1"/><polygon class="cls-10" points="1759.17 712.1 1781.65 750.56 1736.69 750.56 1759.17 712.1"/><polygon class="cls-10" points="1804.13 712.1 1826.61 750.56 1781.65 750.56 1804.13 712.1"/><polygon class="cls-10" points="1849.09 712.1 1871.58 750.56 1826.61 750.56 1849.09 712.1"/><polygon class="cls-10" points="1894.06 712.1 1916.54 750.56 1871.58 750.56 1894.06 712.1"/><polygon class="cls-10" points="1939.02 712.1 1961.5 750.56 1916.54 750.56 1939.02 712.1"/><rect class="cls-11" x="130.33" y="507.18" width="395.85" height="180.08"/><rect class="cls-11" x="545.04" y="506.75" width="395.85" height="180.08"/><rect class="cls-11" x="957.72" y="507.18" width="395.85" height="180.08"/><rect class="cls-11" x="1373.54" y="507.18" width="395.85" height="180.08"/><circle class="cls-12" cx="1452.47" cy="231.85" r="25.79"/><path class="cls-12" d="M1506.32,275.08c-6.81-14.43-29.39-25-56.21-25s-49.4,10.6-56.2,25Z"/><circle class="cls-13" cx="1527.55" cy="231.85" r="25.79"/><path class="cls-13" d="M1581.4,275.08c-6.8-14.43-29.39-25-56.2-25s-49.4,10.6-56.21,25Z"/><circle class="cls-14" cx="1604.15" cy="231.85" r="25.79"/><path class="cls-14" d="M1658,275.08c-6.8-14.43-29.39-25-56.2-25s-49.4,10.6-56.21,25Z"/><circle class="cls-12" cx="644.01" cy="225.79" r="25.79"/><path class="cls-12" d="M697.86,269c-6.8-14.43-29.39-25-56.2-25s-49.4,10.59-56.21,25Z"/><circle class="cls-13" cx="719.1" cy="225.79" r="25.79"/><path class="cls-13" d="M772.94,269c-6.8-14.43-29.39-25-56.2-25s-49.4,10.59-56.21,25Z"/><circle class="cls-14" cx="795.69" cy="225.79" r="25.79"/><path class="cls-14" d="M849.54,269c-6.8-14.43-29.39-25-56.2-25s-49.4,10.59-56.21,25Z"/><circle class="cls-12" cx="997.43" cy="231.85" r="25.79"/><path class="cls-12" d="M1051.28,275.08c-6.81-14.43-29.39-25-56.21-25s-49.4,10.6-56.2,25Z"/><circle class="cls-13" cx="1072.51" cy="231.85" r="25.79"/><path class="cls-13" d="M1126.36,275.08c-6.81-14.43-29.39-25-56.21-25s-49.4,10.6-56.2,25Z"/><circle class="cls-14" cx="1149.11" cy="231.85" r="25.79"/><path class="cls-14" d="M1203,275.08c-6.81-14.43-29.39-25-56.21-25s-49.4,10.6-56.2,25Z"/><circle class="cls-12" cx="1222.68" cy="231.85" r="25.79"/><path class="cls-12" d="M1276.52,275.08c-6.8-14.43-29.39-25-56.2-25s-49.4,10.6-56.21,25Z"/><circle class="cls-13" cx="1297.76" cy="231.85" r="25.79"/><path class="cls-13" d="M1351.6,275.08c-6.8-14.43-29.38-25-56.2-25s-49.4,10.6-56.2,25Z"/><circle class="cls-14" cx="1374.36" cy="231.85" r="25.79"/><path class="cls-14" d="M1428.2,275.08c-6.8-14.43-29.39-25-56.2-25s-49.4,10.6-56.21,25Z"/><circle class="cls-13" cx="374.78" cy="231.85" r="25.79"/><path class="cls-13" d="M428.63,275.08c-6.81-14.43-29.39-25-56.21-25s-49.4,10.6-56.2,25Z"/><circle class="cls-14" cx="451.38" cy="231.85" r="25.79"/><path class="cls-14" d="M505.23,275.08c-6.81-14.43-29.39-25-56.21-25s-49.4,10.6-56.2,25Z"/><circle class="cls-12" cx="405.87" cy="225.79" r="25.79"/><path class="cls-12" d="M459.72,269c-6.8-14.43-29.39-25-56.2-25s-49.4,10.59-56.21,25Z"/><circle class="cls-13" cx="480.96" cy="225.79" r="25.79"/><path class="cls-13" d="M534.8,269c-6.8-14.43-29.39-25-56.2-25s-49.4,10.59-56.21,25Z"/><circle class="cls-14" cx="557.56" cy="225.79" r="25.79"/><path class="cls-14" d="M611.4,269c-6.8-14.43-29.39-25-56.2-25S505.8,254.58,499,269Z"/><circle class="cls-12" cx="524.94" cy="231.85" r="25.79"/><path class="cls-12" d="M578.79,275.08c-6.8-14.43-29.39-25-56.2-25s-49.4,10.6-56.21,25Z"/><circle class="cls-13" cx="600.03" cy="231.85" r="25.79"/><path class="cls-13" d="M653.87,275.08c-6.8-14.43-29.39-25-56.2-25s-49.4,10.6-56.21,25Z"/><circle class="cls-14" cx="676.62" cy="231.85" r="25.79"/><path class="cls-14" d="M730.47,275.08c-6.8-14.43-29.39-25-56.2-25s-49.4,10.6-56.21,25Z"/><circle class="cls-12" cx="1105.05" cy="232.1" r="25.79"/><path class="cls-12" d="M1158.9,275.33c-6.8-14.43-29.39-25-56.2-25s-49.4,10.6-56.21,25Z"/><circle class="cls-13" cx="1180.14" cy="232.1" r="25.79"/><path class="cls-13" d="M1234,275.33c-6.8-14.43-29.39-25-56.2-25s-49.4,10.6-56.21,25Z"/><circle class="cls-14" cx="1256.73" cy="232.1" r="25.79"/><path class="cls-14" d="M1310.58,275.33c-6.8-14.43-29.39-25-56.2-25s-49.4,10.6-56.21,25Z"/><circle class="cls-12" cx="876.17" cy="231.74" r="25.79"/><path class="cls-12" d="M930,275c-6.81-14.43-29.39-25-56.21-25s-49.4,10.59-56.2,25Z"/><circle class="cls-13" cx="951.25" cy="231.74" r="25.79"/><path class="cls-13" d="M1005.1,275c-6.8-14.43-29.39-25-56.2-25s-49.4,10.59-56.21,25Z"/><circle class="cls-14" cx="1027.85" cy="231.74" r="25.79"/><path class="cls-14" d="M1081.7,275c-6.81-14.43-29.39-25-56.21-25s-49.4,10.59-56.2,25Z"/><circle class="cls-14" cx="330.87" cy="226.49" r="25.79"/><path class="cls-14" d="M384.72,269.72c-6.81-14.43-29.39-25-56.21-25s-49.4,10.6-56.2,25Z"/><circle class="cls-12" cx="299.7" cy="231.85" r="25.79"/><path class="cls-12" d="M353.54,275.08c-6.8-14.43-29.38-25-56.2-25s-49.4,10.6-56.2,25Z"/><circle class="cls-12" cx="766.12" cy="231.85" r="25.79"/><path class="cls-12" d="M820,275.08c-6.8-14.43-29.39-25-56.2-25s-49.4,10.6-56.21,25Z"/><circle class="cls-13" cx="841.2" cy="231.85" r="25.79"/><path class="cls-13" d="M895.05,275.08c-6.81-14.43-29.39-25-56.21-25s-49.4,10.6-56.2,25Z"/><circle class="cls-14" cx="917.8" cy="231.85" r="25.79"/><path class="cls-14" d="M971.64,275.08c-6.8-14.43-29.38-25-56.2-25s-49.4,10.6-56.21,25Z"/><circle class="cls-12" cx="1339.6" cy="232.11" r="25.79"/><path class="cls-12" d="M1393.45,275.34c-6.81-14.43-29.39-25-56.21-25s-49.4,10.6-56.2,25Z"/><circle class="cls-13" cx="1385.68" cy="232.11" r="25.79"/><path class="cls-13" d="M1439.53,275.34c-6.81-14.43-29.39-25-56.21-25s-49.4,10.6-56.2,25Z"/><circle class="cls-14" cx="1526.28" cy="232.11" r="25.79"/><path class="cls-14" d="M1580.13,275.34c-6.81-14.43-29.39-25-56.21-25s-49.4,10.6-56.2,25Z"/><circle class="cls-12" cx="1562.47" cy="231.93" r="25.79"/><path class="cls-12" d="M1508.62,275.16c6.81-14.43,29.39-25,56.21-25s49.4,10.6,56.2,25Z"/><circle class="cls-13" cx="1487.39" cy="231.93" r="25.79"/><path class="cls-13" d="M1433.54,275.16c6.81-14.43,29.39-25,56.21-25s49.4,10.6,56.2,25Z"/><circle class="cls-14" cx="1410.79" cy="231.93" r="25.79"/><path class="cls-14" d="M1356.94,275.16c6.81-14.43,29.39-25,56.21-25s49.4,10.6,56.2,25Z"/><circle class="cls-12" cx="1440.38" cy="299.81" r="28.18"/><path class="cls-12" d="M1499.23,347.06c-7.44-15.77-32.12-27.35-61.43-27.35s-54,11.58-61.43,27.35Z"/><circle class="cls-13" cx="1522.43" cy="299.81" r="28.18"/><path class="cls-13" d="M1581.28,347.06c-7.43-15.77-32.12-27.35-61.42-27.35s-54,11.58-61.43,27.35Z"/><circle class="cls-14" cx="1606.15" cy="299.81" r="28.18"/><path class="cls-14" d="M1665,347.06c-7.44-15.77-32.12-27.35-61.43-27.35s-54,11.58-61.42,27.35Z"/><circle class="cls-12" cx="556.8" cy="293.18" r="28.18"/><path class="cls-12" d="M615.65,340.43c-7.44-15.77-32.12-27.36-61.43-27.36s-54,11.59-61.42,27.36Z"/><circle class="cls-13" cx="638.86" cy="293.18" r="28.18"/><path class="cls-13" d="M697.71,340.43c-7.44-15.77-32.12-27.36-61.43-27.36s-54,11.59-61.42,27.36Z"/><circle class="cls-14" cx="722.58" cy="293.18" r="28.18"/><path class="cls-14" d="M781.42,340.43C774,324.66,749.31,313.07,720,313.07s-54,11.59-61.43,27.36Z"/><circle class="cls-12" cx="943.05" cy="299.81" r="28.18"/><path class="cls-12" d="M1001.9,347.06c-7.43-15.77-32.12-27.35-61.42-27.35s-54,11.58-61.43,27.35Z"/><circle class="cls-13" cx="1025.11" cy="299.81" r="28.18"/><path class="cls-13" d="M1084,347.06c-7.43-15.77-32.12-27.35-61.42-27.35s-54,11.58-61.43,27.35Z"/><circle class="cls-14" cx="1108.83" cy="299.81" r="28.18"/><path class="cls-14" d="M1167.68,347.06c-7.44-15.77-32.12-27.35-61.43-27.35s-54,11.58-61.43,27.35Z"/><circle class="cls-12" cx="1189.23" cy="299.81" r="28.18"/><path class="cls-12" d="M1248.08,347.06c-7.44-15.77-32.12-27.35-61.43-27.35s-54,11.58-61.43,27.35Z"/><circle class="cls-13" cx="1271.29" cy="299.81" r="28.18"/><path class="cls-13" d="M1330.14,347.06c-7.44-15.77-32.12-27.35-61.43-27.35s-54,11.58-61.43,27.35Z"/><circle class="cls-14" cx="1355" cy="299.81" r="28.18"/><path class="cls-14" d="M1413.85,347.06c-7.43-15.77-32.12-27.35-61.42-27.35s-54,11.58-61.43,27.35Z"/><circle class="cls-13" cx="262.55" cy="299.81" r="28.18"/><path class="cls-13" d="M321.4,347.06C314,331.29,289.28,319.71,260,319.71s-54,11.58-61.43,27.35Z"/><circle class="cls-14" cx="346.27" cy="299.81" r="28.18"/><path class="cls-14" d="M405.12,347.06c-7.44-15.77-32.12-27.35-61.43-27.35s-54,11.58-61.43,27.35Z"/><circle class="cls-12" cx="296.54" cy="293.18" r="28.18"/><path class="cls-12" d="M355.39,340.43C348,324.66,323.27,313.07,294,313.07s-54,11.59-61.43,27.36Z"/><circle class="cls-13" cx="378.59" cy="293.18" r="28.18"/><path class="cls-13" d="M437.44,340.43C430,324.66,405.32,313.07,376,313.07s-54,11.59-61.43,27.36Z"/><circle class="cls-14" cx="462.31" cy="293.18" r="28.18"/><path class="cls-14" d="M521.16,340.43c-7.44-15.77-32.12-27.36-61.43-27.36s-54,11.59-61.42,27.36Z"/><circle class="cls-12" cx="426.67" cy="299.81" r="28.18"/><path class="cls-12" d="M485.52,347.06c-7.44-15.77-32.12-27.35-61.43-27.35s-54,11.58-61.43,27.35Z"/><circle class="cls-13" cx="508.73" cy="299.81" r="28.18"/><path class="cls-13" d="M567.58,347.06c-7.44-15.77-32.12-27.35-61.43-27.35s-54,11.58-61.43,27.35Z"/><circle class="cls-14" cx="592.44" cy="299.81" r="28.18"/><path class="cls-14" d="M651.29,347.06c-7.43-15.77-32.12-27.35-61.42-27.35s-54,11.58-61.43,27.35Z"/><circle class="cls-12" cx="1060.68" cy="300.08" r="28.18"/><path class="cls-12" d="M1119.53,347.33c-7.44-15.77-32.12-27.35-61.43-27.35s-54,11.58-61.43,27.35Z"/><circle class="cls-13" cx="1142.74" cy="300.08" r="28.18"/><path class="cls-13" d="M1201.59,347.33c-7.44-15.77-32.12-27.35-61.43-27.35s-54,11.58-61.43,27.35Z"/><circle class="cls-14" cx="1226.45" cy="300.08" r="28.18"/><path class="cls-14" d="M1285.3,347.33c-7.44-15.77-32.12-27.35-61.43-27.35s-54,11.58-61.42,27.35Z"/><circle class="cls-12" cx="810.53" cy="299.69" r="28.18"/><path class="cls-12" d="M869.38,346.94c-7.44-15.77-32.12-27.35-61.43-27.35s-54,11.58-61.42,27.35Z"/><circle class="cls-13" cx="892.59" cy="299.69" r="28.18"/><path class="cls-13" d="M951.44,346.94C944,331.17,919.32,319.59,890,319.59s-54,11.58-61.43,27.35Z"/><circle class="cls-14" cx="976.3" cy="299.69" r="28.18"/><path class="cls-14" d="M1035.15,346.94c-7.43-15.77-32.12-27.35-61.42-27.35s-54,11.58-61.43,27.35Z"/><circle class="cls-14" cx="214.56" cy="293.95" r="28.18"/><path class="cls-14" d="M273.41,341.19C266,325.42,241.29,313.84,212,313.84s-54,11.58-61.42,27.35Z"/><circle class="cls-12" cx="180.49" cy="299.81" r="28.18"/><path class="cls-12" d="M239.34,347.06c-7.43-15.77-32.12-27.35-61.42-27.35s-54,11.58-61.43,27.35Z"/><circle class="cls-12" cx="690.25" cy="299.81" r="28.18"/><path class="cls-12" d="M749.1,347.06c-7.44-15.77-32.12-27.35-61.43-27.35s-54,11.58-61.42,27.35Z"/><circle class="cls-13" cx="772.31" cy="299.81" r="28.18"/><path class="cls-13" d="M831.16,347.06c-7.44-15.77-32.12-27.35-61.43-27.35s-54,11.58-61.43,27.35Z"/><circle class="cls-14" cx="856.02" cy="299.81" r="28.18"/><path class="cls-14" d="M914.87,347.06c-7.43-15.77-32.12-27.35-61.42-27.35s-54,11.58-61.43,27.35Z"/><circle class="cls-12" cx="1343.02" cy="300.09" r="28.18"/><path class="cls-12" d="M1401.87,347.34c-7.44-15.77-32.12-27.35-61.43-27.35s-54,11.58-61.43,27.35Z"/><circle class="cls-13" cx="1425.07" cy="300.09" r="28.18"/><path class="cls-13" d="M1483.92,347.34c-7.43-15.77-32.12-27.35-61.42-27.35s-54,11.58-61.43,27.35Z"/><circle class="cls-14" cx="1508.79" cy="300.09" r="28.18"/><path class="cls-14" d="M1567.64,347.34c-7.44-15.77-32.12-27.35-61.43-27.35s-54,11.58-61.42,27.35Z"/><circle class="cls-12" cx="1560.59" cy="299.9" r="28.18"/><path class="cls-12" d="M1501.74,347.14c7.44-15.77,32.12-27.35,61.43-27.35s54,11.58,61.43,27.35Z"/><circle class="cls-13" cx="1478.54" cy="299.9" r="28.18"/><path class="cls-13" d="M1419.69,347.14c7.43-15.77,32.11-27.35,61.42-27.35s54,11.58,61.43,27.35Z"/><circle class="cls-14" cx="1394.82" cy="299.9" r="28.18"/><path class="cls-14" d="M1336,347.14c7.44-15.77,32.12-27.35,61.43-27.35s54,11.58,61.42,27.35Z"/><circle class="cls-12" cx="1597.82" cy="364.62" r="31.26"/><path class="cls-12" d="M1663.11,417c-8.25-17.5-35.63-30.35-68.14-30.35s-59.9,12.85-68.15,30.35Z"/><circle class="cls-13" cx="1688.85" cy="364.62" r="31.26"/><path class="cls-13" d="M1754.13,417c-8.25-17.5-35.63-30.35-68.14-30.35s-59.89,12.85-68.14,30.35Z"/><circle class="cls-14" cx="1781.72" cy="364.62" r="31.26"/><path class="cls-14" d="M1847,417c-8.25-17.5-35.63-30.35-68.14-30.35S1719,399.53,1710.72,417Z"/><circle class="cls-12" cx="617.67" cy="357.26" r="31.26"/><path class="cls-12" d="M683,409.67c-8.25-17.49-35.63-30.34-68.14-30.34s-59.89,12.85-68.14,30.34Z"/><circle class="cls-13" cx="708.7" cy="357.26" r="31.26"/><path class="cls-13" d="M774,409.67c-8.25-17.49-35.63-30.34-68.14-30.34S646,392.18,637.7,409.67Z"/><circle class="cls-14" cx="801.56" cy="357.26" r="31.26"/><path class="cls-14" d="M866.85,409.67c-8.25-17.49-35.63-30.34-68.14-30.34s-59.9,12.85-68.14,30.34Z"/><circle class="cls-12" cx="1046.14" cy="364.62" r="31.26"/><path class="cls-12" d="M1111.43,417c-8.25-17.5-35.63-30.35-68.15-30.35S983.39,399.53,975.14,417Z"/><circle class="cls-13" cx="1137.17" cy="364.62" r="31.26"/><path class="cls-13" d="M1202.45,417c-8.25-17.5-35.63-30.35-68.14-30.35s-59.89,12.85-68.14,30.35Z"/><circle class="cls-14" cx="1230.04" cy="364.62" r="31.26"/><path class="cls-14" d="M1295.32,417c-8.25-17.5-35.63-30.35-68.14-30.35S1167.29,399.53,1159,417Z"/><circle class="cls-12" cx="1319.23" cy="364.62" r="31.26"/><path class="cls-12" d="M1384.51,417c-8.25-17.5-35.63-30.35-68.14-30.35s-59.89,12.85-68.14,30.35Z"/><circle class="cls-13" cx="1410.25" cy="364.62" r="31.26"/><path class="cls-13" d="M1475.53,417c-8.24-17.5-35.63-30.35-68.14-30.35s-59.89,12.85-68.14,30.35Z"/><circle class="cls-14" cx="1503.12" cy="364.62" r="31.26"/><path class="cls-14" d="M1568.4,417c-8.25-17.5-35.63-30.35-68.14-30.35s-59.89,12.85-68.14,30.35Z"/><circle class="cls-13" cx="291.26" cy="364.62" r="31.26"/><path class="cls-13" d="M356.54,417c-8.25-17.5-35.63-30.35-68.14-30.35S228.51,399.53,220.26,417Z"/><circle class="cls-14" cx="384.13" cy="364.62" r="31.26"/><path class="cls-14" d="M449.41,417c-8.25-17.5-35.63-30.35-68.14-30.35S321.38,399.53,313.13,417Z"/><circle class="cls-12" cx="328.96" cy="357.26" r="31.26"/><path class="cls-12" d="M394.24,409.67c-8.25-17.49-35.63-30.34-68.14-30.34S266.21,392.18,258,409.67Z"/><circle class="cls-13" cx="419.99" cy="357.26" r="31.26"/><path class="cls-13" d="M485.27,409.67c-8.25-17.49-35.63-30.34-68.14-30.34S357.24,392.18,349,409.67Z"/><circle class="cls-14" cx="512.85" cy="357.26" r="31.26"/><path class="cls-14" d="M578.13,409.67c-8.25-17.49-35.63-30.34-68.14-30.34s-59.89,12.85-68.14,30.34Z"/><circle class="cls-12" cx="473.31" cy="364.62" r="31.26"/><path class="cls-12" d="M538.6,417c-8.25-17.5-35.63-30.35-68.14-30.35s-59.9,12.85-68.15,30.35Z"/><circle class="cls-13" cx="564.34" cy="364.62" r="31.26"/><path class="cls-13" d="M629.62,417c-8.25-17.5-35.63-30.35-68.14-30.35S501.59,399.53,493.34,417Z"/><circle class="cls-14" cx="657.21" cy="364.62" r="31.26"/><path class="cls-14" d="M722.49,417c-8.25-17.5-35.63-30.35-68.14-30.35S594.46,399.53,586.21,417Z"/><circle class="cls-12" cx="1176.62" cy="364.92" r="31.26"/><path class="cls-12" d="M1241.91,417.33c-8.25-17.5-35.64-30.35-68.15-30.35s-59.89,12.85-68.14,30.35Z"/><circle class="cls-13" cx="1267.65" cy="364.92" r="31.26"/><path class="cls-13" d="M1332.93,417.33c-8.25-17.5-35.63-30.35-68.14-30.35s-59.89,12.85-68.14,30.35Z"/><circle class="cls-14" cx="1360.52" cy="364.92" r="31.26"/><path class="cls-14" d="M1425.8,417.33c-8.25-17.5-35.63-30.35-68.14-30.35s-59.89,12.85-68.14,30.35Z"/><circle class="cls-12" cx="899.13" cy="364.49" r="31.26"/><path class="cls-12" d="M964.42,416.9c-8.25-17.5-35.63-30.35-68.15-30.35s-59.89,12.85-68.14,30.35Z"/><circle class="cls-13" cx="990.16" cy="364.49" r="31.26"/><path class="cls-13" d="M1055.44,416.9c-8.25-17.5-35.63-30.35-68.14-30.35s-59.89,12.85-68.14,30.35Z"/><circle class="cls-14" cx="1083.03" cy="364.49" r="31.26"/><path class="cls-14" d="M1148.31,416.9c-8.25-17.5-35.63-30.35-68.14-30.35S1020.28,399.4,1012,416.9Z"/><circle class="cls-14" cx="238.02" cy="358.11" r="31.26"/><path class="cls-14" d="M303.31,410.52c-8.25-17.49-35.63-30.34-68.15-30.34S175.27,393,167,410.52Z"/><circle class="cls-12" cx="200.23" cy="364.62" r="31.26"/><path class="cls-12" d="M265.51,417c-8.24-17.5-35.63-30.35-68.14-30.35S137.48,399.53,129.23,417Z"/><circle class="cls-12" cx="765.71" cy="364.62" r="31.26"/><path class="cls-12" d="M831,417c-8.25-17.5-35.63-30.35-68.14-30.35S703,399.53,694.71,417Z"/><circle class="cls-13" cx="856.73" cy="364.62" r="31.26"/><path class="cls-13" d="M922,417c-8.25-17.5-35.64-30.35-68.15-30.35S794,399.53,785.73,417Z"/><circle class="cls-14" cx="949.6" cy="364.62" r="31.26"/><path class="cls-14" d="M1014.88,417c-8.25-17.5-35.63-30.35-68.14-30.35S886.85,399.53,878.6,417Z"/><circle class="cls-12" cx="1488.98" cy="363.93" r="31.26"/><path class="cls-12" d="M1554.26,416.34C1546,398.85,1518.63,386,1486.12,386s-59.89,12.85-68.14,30.34Z"/><circle class="cls-13" cx="1580.01" cy="363.93" r="31.26"/><path class="cls-13" d="M1645.29,416.34C1637,398.85,1609.66,386,1577.15,386s-59.89,12.85-68.14,30.34Z"/><circle class="cls-14" cx="1672.87" cy="363.93" r="31.26"/><path class="cls-14" d="M1738.16,416.34C1729.91,398.85,1702.53,386,1670,386s-59.89,12.85-68.14,30.34Z"/><circle class="cls-12" cx="1731.18" cy="364.71" r="31.26"/><path class="cls-12" d="M1665.9,417.12c8.25-17.49,35.63-30.34,68.14-30.34s59.89,12.85,68.14,30.34Z"/><circle class="cls-13" cx="1640.15" cy="364.71" r="31.26"/><path class="cls-13" d="M1574.87,417.12c8.25-17.49,35.63-30.34,68.14-30.34s59.89,12.85,68.14,30.34Z"/><circle class="cls-14" cx="1547.29" cy="364.71" r="31.26"/><path class="cls-14" d="M1482,417.12c8.25-17.49,35.63-30.34,68.14-30.34s59.89,12.85,68.14,30.34Z"/><circle class="cls-12" cx="1623" cy="437" r="34"/><path class="cls-12" d="M1694,494c-9-19-38.75-33-74.11-33s-65.14,14-74.11,33Z"/><circle class="cls-13" cx="1722" cy="437" r="34"/><path class="cls-13" d="M1793,494c-9-19-38.75-33-74.11-33s-65.14,14-74.11,33Z"/><circle class="cls-14" cx="1823" cy="437" r="34"/><path class="cls-14" d="M1894,494c-9-19-38.75-33-74.11-33s-65.14,14-74.11,33Z"/><circle class="cls-12" cx="557" cy="429" r="34"/><path class="cls-12" d="M628,486c-9-19-38.75-33-74.11-33s-65.14,14-74.11,33Z"/><circle class="cls-13" cx="656" cy="429" r="34"/><path class="cls-13" d="M727,486c-9-19-38.75-33-74.11-33s-65.14,14-74.11,33Z"/><circle class="cls-14" cx="757" cy="429" r="34"/><path class="cls-14" d="M828,486c-9-19-38.75-33-74.11-33s-65.14,14-74.11,33Z"/><circle class="cls-12" cx="1023" cy="437" r="34"/><path class="cls-12" d="M1094,494c-9-19-38.75-33-74.11-33s-65.14,14-74.11,33Z"/><circle class="cls-13" cx="1122" cy="437" r="34"/><path class="cls-13" d="M1193,494c-9-19-38.75-33-74.11-33s-65.14,14-74.11,33Z"/><circle class="cls-14" cx="1223" cy="437" r="34"/><path class="cls-14" d="M1294,494c-9-19-38.75-33-74.11-33s-65.14,14-74.11,33Z"/><circle class="cls-12" cx="1320" cy="437" r="34"/><path class="cls-12" d="M1391,494c-9-19-38.75-33-74.11-33s-65.14,14-74.11,33Z"/><circle class="cls-13" cx="1419" cy="437" r="34"/><path class="cls-13" d="M1490,494c-9-19-38.75-33-74.11-33s-65.14,14-74.11,33Z"/><circle class="cls-14" cx="1520" cy="437" r="34"/><path class="cls-14" d="M1591,494c-9-19-38.75-33-74.11-33s-65.14,14-74.11,33Z"/><circle class="cls-13" cx="202" cy="437" r="34"/><path class="cls-13" d="M273,494c-9-19-38.75-33-74.11-33s-65.14,14-74.11,33Z"/><circle class="cls-14" cx="303" cy="437" r="34"/><path class="cls-14" d="M374,494c-9-19-38.75-33-74.11-33s-65.14,14-74.11,33Z"/><circle class="cls-12" cx="243" cy="429" r="34"/><path class="cls-12" d="M314,486c-9-19-38.75-33-74.11-33s-65.14,14-74.11,33Z"/><circle class="cls-13" cx="342" cy="429" r="34"/><path class="cls-13" d="M413,486c-9-19-38.75-33-74.11-33s-65.14,14-74.11,33Z"/><circle class="cls-14" cx="443" cy="429" r="34"/><path class="cls-14" d="M514,486c-9-19-38.75-33-74.11-33s-65.14,14-74.11,33Z"/><circle class="cls-12" cx="400" cy="437" r="34"/><path class="cls-12" d="M471,494c-9-19-38.75-33-74.11-33s-65.14,14-74.11,33Z"/><circle class="cls-13" cx="499" cy="437" r="34"/><path class="cls-13" d="M570,494c-9-19-38.75-33-74.11-33s-65.14,14-74.11,33Z"/><circle class="cls-14" cx="600" cy="437" r="34"/><path class="cls-14" d="M671,494c-9-19-38.75-33-74.11-33s-65.14,14-74.11,33Z"/><circle class="cls-12" cx="1164.91" cy="437.33" r="34"/><path class="cls-12" d="M1235.91,494.33c-9-19-38.75-33-74.11-33s-65.14,14-74.11,33Z"/><circle class="cls-13" cx="1263.91" cy="437.33" r="34"/><path class="cls-13" d="M1334.91,494.33c-9-19-38.75-33-74.11-33s-65.14,14-74.11,33Z"/><circle class="cls-14" cx="1364.91" cy="437.33" r="34"/><path class="cls-14" d="M1435.91,494.33c-9-19-38.75-33-74.11-33s-65.14,14-74.11,33Z"/><circle class="cls-12" cx="863.11" cy="436.86" r="34"/><path class="cls-12" d="M934.11,493.86c-9-19-38.75-33-74.11-33s-65.13,14-74.1,33Z"/><circle class="cls-13" cx="962.11" cy="436.86" r="34"/><path class="cls-13" d="M1033.11,493.86c-9-19-38.75-33-74.11-33s-65.13,14-74.1,33Z"/><circle class="cls-14" cx="1063.11" cy="436.86" r="34"/><path class="cls-14" d="M1134.11,493.86c-9-19-38.75-33-74.11-33s-65.13,14-74.1,33Z"/><circle class="cls-14" cx="144.1" cy="429.92" r="34"/><path class="cls-14" d="M215.1,486.92c-9-19-38.75-33-74.11-33s-65.14,14-74.11,33Z"/><circle class="cls-12" cx="103" cy="437" r="34"/><path class="cls-12" d="M174,494c-9-19-38.75-33-74.11-33s-65.14,14-74.11,33Z"/><circle class="cls-12" cx="718" cy="437" r="34"/><path class="cls-12" d="M789,494c-9-19-38.75-33-74.11-33s-65.14,14-74.11,33Z"/><circle class="cls-13" cx="817" cy="437" r="34"/><path class="cls-13" d="M888,494c-9-19-38.75-33-74.11-33s-65.14,14-74.11,33Z"/><circle class="cls-14" cx="918" cy="437" r="34"/><path class="cls-14" d="M989,494c-9-19-38.75-33-74.11-33s-65.14,14-74.11,33Z"/><circle class="cls-12" cx="1474.17" cy="437.34" r="34"/><path class="cls-12" d="M1545.17,494.34c-9-19-38.75-33-74.11-33s-65.14,14-74.11,33Z"/><circle class="cls-13" cx="1573.17" cy="437.34" r="34"/><path class="cls-13" d="M1644.17,494.34c-9-19-38.75-33-74.11-33s-65.14,14-74.11,33Z"/><circle class="cls-14" cx="1674.17" cy="437.34" r="34"/><path class="cls-14" d="M1745.17,494.34c-9-19-38.75-33-74.11-33s-65.14,14-74.11,33Z"/><circle class="cls-12" cx="1768.04" cy="437.1" r="34"/><path class="cls-12" d="M1697,494.1c9-19,38.75-33,74.11-33s65.13,14,74.11,33Z"/><circle class="cls-13" cx="1669.04" cy="437.1" r="34"/><path class="cls-13" d="M1598,494.1c9-19,38.75-33,74.11-33s65.13,14,74.11,33Z"/><circle class="cls-14" cx="1568.04" cy="437.1" r="34"/><path class="cls-14" d="M1497,494.1c9-19,38.75-33,74.11-33s65.13,14,74.11,33Z"/><path d="M215.79,548.51v40a23,23,0,0,1-2.9,11.78,18.71,18.71,0,0,1-8.31,7.58,29.26,29.26,0,0,1-12.81,2.6q-11.18,0-17.6-5.79t-6.55-15.87V548.51h14.83v40.61q.24,10,9.32,10,4.57,0,6.93-2.52c1.56-1.68,2.35-4.41,2.35-8.19V548.51Z"/><path d="M276.05,609.65H261.39l-21.67-38v38H225V548.51h14.74l21.63,38v-38h14.7Z"/><path d="M337.15,580.34a36,36,0,0,1-3.32,15.83,24.52,24.52,0,0,1-9.43,10.61,26.21,26.21,0,0,1-13.92,3.71,26.56,26.56,0,0,1-13.86-3.59,24.41,24.41,0,0,1-9.42-10.26,34.9,34.9,0,0,1-3.55-15.33v-3.44A36.37,36.37,0,0,1,286.94,562a24.51,24.51,0,0,1,9.45-10.6,26.45,26.45,0,0,1,14-3.74,26.18,26.18,0,0,1,13.85,3.7,24.85,24.85,0,0,1,9.47,10.52,35.11,35.11,0,0,1,3.43,15.64Zm-15-2.56q0-9.1-3-13.83a9.76,9.76,0,0,0-8.71-4.73q-11.08,0-11.72,16.63l0,4.49q0,9,3,13.82a9.75,9.75,0,0,0,8.86,4.83,9.64,9.64,0,0,0,8.61-4.75c2-3.16,3-7.71,3.06-13.64Z"/><path d="M344.75,609.65V548.51h22q11.79,0,18,4.33t6.15,12.55a14.6,14.6,0,0,1-2.18,8.11,12.71,12.71,0,0,1-6.43,5,12.89,12.89,0,0,1,7.35,4.71,13.64,13.64,0,0,1,2.56,8.4q0,9-5.69,13.5t-16.86,4.59ZM359.49,574h7.68c3.22,0,5.51-.61,6.89-1.77a6.27,6.27,0,0,0,2.05-5.09q0-3.89-2.22-5.58t-7.18-1.71h-7.22Zm0,9.66v14.66h9.65a9.16,9.16,0,0,0,6.13-1.83,6.39,6.39,0,0,0,2.15-5.14q0-7.65-7.6-7.69Z"/><path d="M438.14,583.7H415v14.62h27.38v11.33H400.22V548.51h42.2v11.38H415v12.9h23.18Z"/><path d="M497.18,559.89H478.83v49.76H464.09V559.89h-18V548.51h51.11Z"/><circle class="cls-15" cx="247" cy="638" r="15"/><circle class="cls-15" cx="278" cy="638" r="15"/><circle class="cls-15" cx="309" cy="638" r="15"/><circle class="cls-15" cx="341" cy="638" r="15"/><circle class="cls-15" cx="373" cy="638" r="15"/><circle class="cls-15" cx="405" cy="638" r="15"/><path d="M634.79,546.51v40a23,23,0,0,1-2.9,11.78,18.71,18.71,0,0,1-8.31,7.58,29.26,29.26,0,0,1-12.81,2.6q-11.17,0-17.6-5.79t-6.55-15.87V546.51h14.83v40.61q.24,10,9.32,10,4.58,0,6.93-2.52c1.56-1.68,2.35-4.41,2.35-8.19V546.51Z"/><path d="M695.05,607.65H680.39l-21.67-38v38H644V546.51h14.74l21.63,38v-38h14.7Z"/><path d="M756.15,578.34a36,36,0,0,1-3.32,15.83,24.52,24.52,0,0,1-9.43,10.61,26.21,26.21,0,0,1-13.92,3.71,26.56,26.56,0,0,1-13.86-3.59,24.41,24.41,0,0,1-9.42-10.26,34.9,34.9,0,0,1-3.55-15.33v-3.44A36.37,36.37,0,0,1,705.94,560a24.51,24.51,0,0,1,9.45-10.6,26.45,26.45,0,0,1,14-3.74,26.18,26.18,0,0,1,13.85,3.7,24.85,24.85,0,0,1,9.47,10.52,35.11,35.11,0,0,1,3.43,15.64Zm-15-2.56q0-9.1-3-13.83a9.76,9.76,0,0,0-8.71-4.73q-11.08,0-11.72,16.63l0,4.49q0,9,3,13.82a9.75,9.75,0,0,0,8.86,4.83,9.64,9.64,0,0,0,8.61-4.75c2-3.16,3-7.71,3.06-13.64Z"/><path d="M763.75,607.65V546.51h22q11.79,0,17.95,4.33t6.15,12.55a14.6,14.6,0,0,1-2.18,8.11,12.71,12.71,0,0,1-6.43,5,12.89,12.89,0,0,1,7.35,4.71,13.64,13.64,0,0,1,2.56,8.4q0,9-5.69,13.5t-16.86,4.59ZM778.49,572h7.68c3.22,0,5.51-.61,6.89-1.77a6.27,6.27,0,0,0,2.05-5.09q0-3.89-2.22-5.58t-7.18-1.71h-7.22Zm0,9.66v14.66h9.65a9.16,9.16,0,0,0,6.13-1.83,6.39,6.39,0,0,0,2.15-5.14q0-7.65-7.6-7.69Z"/><path d="M857.14,581.7H834v14.62h27.38v11.33H819.22V546.51h42.2v11.38H834v12.9h23.18Z"/><path d="M916.18,557.89H897.83v49.76H883.09V557.89h-18V546.51h51.11Z"/><circle class="cls-15" cx="666" cy="636" r="15"/><circle class="cls-15" cx="697" cy="636" r="15"/><circle class="cls-15" cx="728" cy="636" r="15"/><circle class="cls-15" cx="760" cy="636" r="15"/><circle class="cls-15" cx="792" cy="636" r="15"/><circle class="cls-15" cx="824" cy="636" r="15"/><path d="M1053.79,546.51v40a23,23,0,0,1-2.9,11.78,18.71,18.71,0,0,1-8.31,7.58,29.26,29.26,0,0,1-12.81,2.6q-11.17,0-17.6-5.79t-6.55-15.87V546.51h14.83v40.61q.24,10,9.32,10,4.57,0,6.93-2.52c1.56-1.68,2.35-4.41,2.35-8.19V546.51Z"/><path d="M1114.05,607.65h-14.66l-21.67-38v38H1063V546.51h14.74l21.63,38v-38h14.7Z"/><path d="M1175.15,578.34a36,36,0,0,1-3.32,15.83,24.52,24.52,0,0,1-9.43,10.61,26.21,26.21,0,0,1-13.92,3.71,26.56,26.56,0,0,1-13.86-3.59,24.41,24.41,0,0,1-9.42-10.26,34.9,34.9,0,0,1-3.55-15.33v-3.44a36.37,36.37,0,0,1,3.29-15.86,24.51,24.51,0,0,1,9.45-10.6,26.45,26.45,0,0,1,14-3.74,26.18,26.18,0,0,1,13.85,3.7,24.85,24.85,0,0,1,9.47,10.52,35.11,35.11,0,0,1,3.43,15.64Zm-15-2.56q0-9.1-3-13.83a9.76,9.76,0,0,0-8.71-4.73q-11.09,0-11.72,16.63l0,4.49q0,9,3,13.82a9.75,9.75,0,0,0,8.86,4.83,9.64,9.64,0,0,0,8.61-4.75c2-3.16,3-7.71,3.06-13.64Z"/><path d="M1182.75,607.65V546.51h22q11.79,0,18,4.33t6.15,12.55a14.6,14.6,0,0,1-2.18,8.11,12.71,12.71,0,0,1-6.43,5,12.89,12.89,0,0,1,7.35,4.71,13.64,13.64,0,0,1,2.56,8.4q0,9-5.69,13.5t-16.86,4.59ZM1197.49,572h7.68c3.22,0,5.51-.61,6.89-1.77a6.27,6.27,0,0,0,2-5.09q0-3.89-2.22-5.58t-7.18-1.71h-7.22Zm0,9.66v14.66h9.65a9.16,9.16,0,0,0,6.13-1.83,6.39,6.39,0,0,0,2.15-5.14q0-7.65-7.6-7.69Z"/><path d="M1276.14,581.7H1253v14.62h27.38v11.33h-42.12V546.51h42.2v11.38H1253v12.9h23.18Z"/><path d="M1335.18,557.89h-18.35v49.76h-14.74V557.89h-18V546.51h51.11Z"/><circle class="cls-15" cx="1085" cy="636" r="15"/><circle class="cls-15" cx="1116" cy="636" r="15"/><circle class="cls-15" cx="1147" cy="636" r="15"/><circle class="cls-15" cx="1179" cy="636" r="15"/><circle class="cls-15" cx="1211" cy="636" r="15"/><circle class="cls-15" cx="1243" cy="636" r="15"/><path d="M1461.79,546.51v40a23,23,0,0,1-2.9,11.78,18.71,18.71,0,0,1-8.31,7.58,29.26,29.26,0,0,1-12.81,2.6q-11.18,0-17.6-5.79t-6.55-15.87V546.51h14.83v40.61q.24,10,9.32,10,4.57,0,6.93-2.52c1.56-1.68,2.35-4.41,2.35-8.19V546.51Z"/><path d="M1522.05,607.65h-14.66l-21.67-38v38H1471V546.51h14.74l21.63,38v-38h14.7Z"/><path d="M1583.15,578.34a36,36,0,0,1-3.32,15.83,24.52,24.52,0,0,1-9.43,10.61,26.21,26.21,0,0,1-13.92,3.71,26.56,26.56,0,0,1-13.86-3.59,24.41,24.41,0,0,1-9.42-10.26,34.9,34.9,0,0,1-3.55-15.33v-3.44a36.37,36.37,0,0,1,3.29-15.86,24.51,24.51,0,0,1,9.45-10.6,26.45,26.45,0,0,1,14-3.74,26.18,26.18,0,0,1,13.85,3.7,24.85,24.85,0,0,1,9.47,10.52,35.11,35.11,0,0,1,3.43,15.64Zm-15-2.56q0-9.1-3-13.83a9.76,9.76,0,0,0-8.71-4.73q-11.09,0-11.72,16.63l0,4.49q0,9,3,13.82a9.75,9.75,0,0,0,8.86,4.83,9.64,9.64,0,0,0,8.61-4.75c2-3.16,3-7.71,3.06-13.64Z"/><path d="M1590.75,607.65V546.51h22q11.79,0,18,4.33t6.15,12.55a14.6,14.6,0,0,1-2.18,8.11,12.71,12.71,0,0,1-6.43,5,12.89,12.89,0,0,1,7.35,4.71,13.64,13.64,0,0,1,2.56,8.4q0,9-5.69,13.5t-16.86,4.59ZM1605.49,572h7.68c3.22,0,5.51-.61,6.89-1.77a6.27,6.27,0,0,0,2-5.09q0-3.89-2.22-5.58t-7.18-1.71h-7.22Zm0,9.66v14.66h9.65a9.16,9.16,0,0,0,6.13-1.83,6.39,6.39,0,0,0,2.15-5.14q0-7.65-7.6-7.69Z"/><path d="M1684.14,581.7H1661v14.62h27.38v11.33h-42.12V546.51h42.2v11.38H1661v12.9h23.18Z"/><path d="M1743.18,557.89h-18.35v49.76h-14.74V557.89h-18V546.51h51.11Z"/><circle class="cls-15" cx="1493" cy="636" r="15"/><circle class="cls-15" cx="1524" cy="636" r="15"/><circle class="cls-15" cx="1555" cy="636" r="15"/><circle class="cls-15" cx="1587" cy="636" r="15"/><circle class="cls-15" cx="1619" cy="636" r="15"/><circle class="cls-15" cx="1651" cy="636" r="15"/><path class="cls-16" d="M1472,557.42l-13.2-8a4,4,0,0,1-1.36-5.54l17.27-28.43a4,4,0,0,1,5.55-1.36l13.21,8a4,4,0,0,1,1.36,5.54l-17.27,28.44A4.07,4.07,0,0,1,1472,557.42Z"/><path class="cls-17" d="M1469.7,522.67l-2.55-3.74a1.19,1.19,0,0,1,.31-1.65l14.32-9.69a1.19,1.19,0,0,1,1.65.31l2.56,3.75a1.19,1.19,0,0,1-.32,1.64l-14.32,9.7A1.2,1.2,0,0,1,1469.7,522.67Z"/><path class="cls-18" d="M1688,529.76V401.81a66.06,66.06,0,0,0-66.16-65.95h0a66.07,66.07,0,0,0-66.17,65.95v128a66.19,66.19,0,0,0,1.5,14h129.33A65.54,65.54,0,0,0,1688,529.76Z"/><path class="cls-19" d="M1621.87,595.71h0a66.12,66.12,0,0,0,64.66-52H1557.2A66.14,66.14,0,0,0,1621.87,595.71Z"/><rect class="cls-20" x="1588.54" y="293.34" width="66.66" height="78.66" rx="33.33"/><ellipse class="cls-16" cx="1714.57" cy="245.06" rx="19.32" ry="19.25"/><ellipse class="cls-17" cx="1714.57" cy="245.06" rx="10.98" ry="10.94"/><ellipse class="cls-16" cx="1529.17" cy="247.43" rx="19.32" ry="19.25"/><ellipse class="cls-17" cx="1529.17" cy="247.43" rx="10.98" ry="10.94"/><ellipse class="cls-21" cx="1621.87" cy="204.06" rx="98.08" ry="97.76"/><rect class="cls-16" x="1529.17" y="145.75" width="185.39" height="198.63" rx="89.25"/><ellipse class="cls-21" cx="1625.45" cy="137.31" rx="31.11" ry="31.01"/><ellipse class="cls-21" cx="1670.94" cy="142.31" rx="30.48" ry="30.38"/><ellipse class="cls-21" cx="1643.1" cy="118.25" rx="17.65" ry="17.59"/><ellipse class="cls-21" cx="1585.51" cy="149.26" rx="12" ry="11.96"/><ellipse class="cls-21" cx="1561.23" cy="158.86" rx="17.65" ry="17.59"/><ellipse class="cls-21" cx="1571.1" cy="135.85" rx="17.65" ry="17.59"/><ellipse class="cls-22" cx="1574.68" cy="214.27" rx="10.24" ry="10.21"/><ellipse class="cls-22" cx="1667.65" cy="214.27" rx="10.24" ry="10.21"/><rect class="cls-17" x="1613.01" y="214.27" width="17.72" height="47.24" rx="3.88"/><path class="cls-22" d="M1617.15,294.39c9.92,0,18.62,4,23.62,10.06a28.1,28.1,0,0,0,4.77-15.7c0-.76,0-1.52-.11-2.27l-54-9.71a28.1,28.1,0,0,0,2.07,27.68C1598.52,298.41,1607.22,294.39,1617.15,294.39Z"/><path class="cls-23" d="M1617.15,317.06a28.38,28.38,0,0,0,23.62-12.61c-5-6-13.7-10.06-23.62-10.06s-18.63,4-23.63,10.06A28.39,28.39,0,0,0,1617.15,317.06Z"/><rect class="cls-16" x="1575.8" y="566.45" width="16.79" height="184.11"/><rect x="1570.91" y="566.45" width="26.56" height="92.06"/><path class="cls-18" d="M1563.33,725.52a29.59,29.59,0,0,0-29.26,25h58.52A29.59,29.59,0,0,0,1563.33,725.52Z"/><rect class="cls-16" x="1651.07" y="566.45" width="16.79" height="184.11" transform="translate(3318.94 1317.01) rotate(-180)"/><rect x="1646.19" y="566.45" width="26.56" height="92.06" transform="translate(3318.94 1224.96) rotate(-180)"/><path class="cls-18" d="M1680.33,725.52a29.59,29.59,0,0,1,29.26,25h-58.52A29.59,29.59,0,0,1,1680.33,725.52Z"/><path class="cls-16" d="M1479.5,539.71l-8.49-5.12a2.59,2.59,0,0,1-.88-3.56l94.26-155.18A2.61,2.61,0,0,1,1568,375l8.48,5.12a2.58,2.58,0,0,1,.88,3.56l-94.25,155.18A2.61,2.61,0,0,1,1479.5,539.71Z"/><path class="cls-18" d="M1544.48,432.69l-9.77-5.9a4.44,4.44,0,0,1-1.51-6.13l28.5-46.92a4.48,4.48,0,0,1,6.15-1.51l9.78,5.9a4.46,4.46,0,0,1,1.51,6.13l-28.51,46.93A4.48,4.48,0,0,1,1544.48,432.69Z"/><path class="cls-16" d="M1758.65,530.23l8.49-5.12a2.59,2.59,0,0,0,.87-3.56l-94.25-155.18a2.6,2.6,0,0,0-3.57-.87l-8.49,5.12a2.59,2.59,0,0,0-.88,3.56l94.26,155.18A2.61,2.61,0,0,0,1758.65,530.23Z"/><path class="cls-18" d="M1693.66,423.21l9.78-5.9a4.46,4.46,0,0,0,1.51-6.13l-28.5-46.92a4.5,4.5,0,0,0-6.16-1.51l-9.77,5.9a4.45,4.45,0,0,0-1.51,6.13l28.5,46.93A4.49,4.49,0,0,0,1693.66,423.21Z"/><path class="cls-16" d="M1766.18,547.93l13.2-8a4,4,0,0,0,1.37-5.54L1763.47,506a4.05,4.05,0,0,0-5.55-1.36l-13.2,8a4,4,0,0,0-1.37,5.54l17.28,28.43A4,4,0,0,0,1766.18,547.93Z"/><path class="cls-17" d="M1768.44,513.19l2.56-3.74a1.2,1.2,0,0,0-.32-1.65l-14.32-9.7a1.2,1.2,0,0,0-1.65.32l-2.55,3.74a1.19,1.19,0,0,0,.31,1.65l14.32,9.7A1.2,1.2,0,0,0,1768.44,513.19Z"/></svg>